Coordinates
version=1
nRows=28
nColumns=38
inDegrees=no

Units are S.I. units (second, meters, Newtons, ...)
If the header above contains a line with 'inDegrees', this indicates whether rotational values are in degrees (yes) or radians (no).

endheader
time	pelvis_tilt	pelvis_list	pelvis_rotation	pelvis_tx	pelvis_ty	pelvis_tz	hip_flexion_r	hip_adduction_r	hip_rotation_r	knee_angle_r	ankle_angle_r	subtalar_angle_r	mtp_angle_r	hip_flexion_l	hip_adduction_l	hip_rotation_l	knee_angle_l	ankle_angle_l	subtalar_angle_l	mtp_angle_l	lumbar_extension	lumbar_bending	lumbar_rotation	arm_flex_r	arm_add_r	arm_rot_r	elbow_flex_r	pro_sup_r	wrist_flex_r	wrist_dev_r	arm_flex_l	arm_add_l	arm_rot_l	elbow_flex_l	pro_sup_l	wrist_flex_l	wrist_dev_l
0	2.79907	1.34956	-1.37417	0.881156	-0.303127	0.977911	-0.133458	0.0468721	-0.153755	0.421261	0.229678	0	0	0.272742	-0.1452	-0.107248	0.744555	0.240154	0	0	-0.398103	0.118388	0.223839	0.307044	-0.402473	0.0885585	1.44535	0	0	0	0.524853	-0.471502	0.578351	0.881869	0.504645	0	0
0.01	2.79906	1.35857	-1.37685	0.881373	-0.291206	0.976659	-0.137015	0.0429914	-0.1481	0.423141	0.240299	0	0	0.288527	-0.147818	-0.12092	0.691045	0.235349	0	0	-0.387067	0.111791	0.224713	0.300295	-0.400001	0.0305187	1.29961	0.926082	0	0	0.526449	-0.47051	0.5814	0.879399	0.504263	0	0
0.02	2.79469	1.3614	-1.3732	0.88108	-0.279002	0.975394	-0.147896	0.0407592	-0.146044	0.423825	0.250474	0	0	0.296824	-0.151232	-0.133538	0.636706	0.231281	0	0	-0.384076	0.111849	0.225004	0.301942	-0.400595	0.0298069	1.2986	0.927808	0	0	0.526687	-0.468429	0.580338	0.878368	0.50358	0	0
0.03	2.79207	1.36337	-1.3711	0.880741	-0.266552	0.974049	-0.159843	0.0382695	-0.143866	0.42496	0.260491	0	0	0.301222	-0.15317	-0.146652	0.577421	0.22531	0	0	-0.381713	0.111544	0.22535	0.302842	-0.401	0.0284323	1.29795	0.929152	0	0	0.527328	-0.466337	0.579477	0.877232	0.503116	0	0
0.04	2.79186	1.36501	-1.37149	0.880322	-0.253918	0.972576	-0.172195	0.0352755	-0.141036	0.426757	0.270993	0	0	0.302176	-0.153133	-0.159322	0.513229	0.215443	0	0	-0.379537	0.110617	0.225461	0.303718	-0.401387	0.0274667	1.2971	0.9305	0	0	0.528214	-0.464508	0.578909	0.87582	0.503398	0	0
0.05	2.78502	1.36773	-1.36444	0.879719	-0.241021	0.970735	-0.183164	0.0335035	-0.138702	0.42896	0.281331	0	0	0.303667	-0.152956	-0.17091	0.448702	0.206166	0	0	-0.375372	0.111238	0.224617	0.304069	-0.402102	0.0272528	1.29663	0.931645	0	0	0.52842	-0.463266	0.578742	0.874977	0.504606	0	0
0.06	2.77599	1.37111	-1.35517	0.878993	-0.227902	0.968649	-0.193257	0.0317175	-0.136836	0.431916	0.291535	0	0	0.303848	-0.151703	-0.182886	0.381895	0.197217	0	0	-0.369987	0.112263	0.223297	0.303918	-0.402946	0.0276238	1.29646	0.932412	0	0	0.527874	-0.462251	0.578197	0.874221	0.506065	0	0
0.07	2.76429	1.37495	-1.34337	0.878134	-0.214539	0.966355	-0.202831	0.0298266	-0.135769	0.43526	0.301578	0	0	0.302639	-0.149474	-0.195152	0.313643	0.190186	0	0	-0.363569	0.113845	0.221611	0.303323	-0.40375	0.0283395	1.29654	0.932765	0	0	0.526222	-0.461314	0.57673	0.873524	0.507285	0	0
0.08	2.74772	1.37903	-1.32672	0.877128	-0.200928	0.963876	-0.211957	0.0281824	-0.135956	0.43905	0.311308	0	0	0.300172	-0.146632	-0.206449	0.244644	0.184715	0	0	-0.356335	0.116522	0.219807	0.302172	-0.404768	0.0291523	1.2973	0.93295	0	0	0.523601	-0.460281	0.574509	0.872945	0.508026	0	0
0.09	2.72519	1.38306	-1.30422	0.876009	-0.187059	0.961244	-0.221081	0.0271159	-0.136811	0.44278	0.320377	0	0	0.295677	-0.143295	-0.215082	0.174165	0.17936	0	0	-0.348582	0.120472	0.217813	0.300697	-0.405798	0.0302553	1.29874	0.933276	0	0	0.519914	-0.459172	0.57127	0.872677	0.508722	0	0
0.1	2.69467	1.3871	-1.27374	0.874781	-0.172901	0.95842	-0.230278	0.0270318	-0.138258	0.446128	0.32843	0	0	0.289729	-0.140092	-0.219891	0.103498	0.171183	0	0	-0.340013	0.125963	0.21522	0.299319	-0.406665	0.0320613	1.3003	0.933844	0	0	0.514508	-0.458313	0.566015	0.873672	0.509362	0	0
0.11	2.65353	1.39114	-1.2324	0.873437	-0.158491	0.955378	-0.238751	0.0283082	-0.139796	0.449968	0.335506	0	0	0.284304	-0.138213	-0.220816	0.0366179	0.159957	0	0	-0.330386	0.13322	0.212084	0.297942	-0.407759	0.0346919	1.30197	0.934272	0	0	0.507733	-0.457775	0.558988	0.876069	0.510073	0	0
0.12	2.60232	1.39472	-1.18068	0.872073	-0.143951	0.952194	-0.246582	0.0312541	-0.140117	0.454191	0.340992	0	0	0.282778	-0.138754	-0.224118	0	0.153143	0	0	-0.320225	0.141704	0.208817	0.29639	-0.408981	0.0373829	1.30358	0.93419	0	0	0.501528	-0.457635	0.553498	0.878006	0.511354	0	0
0.13	2.56589	1.39473	-1.1394	0.87065	-0.130089	0.949154	-0.257144	0.0356271	-0.138558	0.460663	0.344801	0	0	0.303503	-0.144701	-0.235361	0	0.161808	0	0	-0.315509	0.147931	0.202635	0.296461	-0.410182	0.0416053	1.30438	0.932969	0	0	0.497524	-0.457993	0.546882	0.882258	0.514658	0	0
0.14	2.52918	1.3954	-1.10049	0.869241	-0.115723	0.946125	-0.266635	0.0376593	-0.135912	0.468163	0.347825	0	0	0.315186	-0.147792	-0.2437	0	0.169212	0	0	-0.309377	0.153275	0.198354	0.295627	-0.410509	0.0436047	1.30462	0.93211	0	0	0.494163	-0.458583	0.543244	0.884396	0.517867	0	0
0.15	2.49835	1.39533	-1.06837	0.867933	-0.101051	0.943184	-0.276385	0.0386981	-0.131412	0.477606	0.349565	0	0	0.322618	-0.149962	-0.250468	0	0.176315	0	0	-0.303988	0.157092	0.195821	0.293458	-0.410383	0.0431683	1.30491	0.93141	0	0	0.49302	-0.459036	0.543103	0.885266	0.52011	0	0
0.16	2.47513	1.3947	-1.04551	0.866808	-0.0860313	0.940364	-0.286138	0.038189	-0.124897	0.489538	0.349699	0	0	0.325174	-0.151248	-0.256061	0	0.182908	0	0	-0.299471	0.159016	0.195893	0.289664	-0.409747	0.0400263	1.30562	0.931339	0	0	0.493972	-0.459395	0.546868	0.885139	0.520704	0	0
0.17	2.46042	1.39413	-1.0331	0.865876	-0.0706638	0.937646	-0.294874	0.0354408	-0.116646	0.505285	0.348363	0	0	0.322899	-0.151306	-0.259221	0	0.188463	0	0	-0.295532	0.158694	0.198004	0.285016	-0.408435	0.0353613	1.3064	0.932204	0	0	0.495857	-0.460293	0.55319	0.88489	0.520078	0	0
0.18	2.45283	1.39438	-1.03022	0.865156	-0.0549846	0.934938	-0.301128	0.0299119	-0.106849	0.526115	0.346165	0	0	0.316519	-0.150257	-0.259553	0	0.191651	0	0	-0.291382	0.155897	0.20183	0.280123	-0.406575	0.0307145	1.3068	0.933194	0	0	0.497601	-0.46198	0.560426	0.884892	0.517356	0	0
0.19	2.45059	1.39609	-1.0349	0.864683	-0.0390204	0.93211	-0.303502	0.0215807	-0.0958057	0.553011	0.3428	0	0	0.307044	-0.14793	-0.256422	0	0.192176	0	0	-0.286135	0.15053	0.20686	0.275547	-0.404418	0.0273641	1.30615	0.934094	0	0	0.498965	-0.465075	0.568561	0.886106	0.513569	0	0
0.2	2.44815	1.40052	-1.0432	0.864458	-0.0225547	0.92898	-0.299953	0.0106601	-0.0830215	0.586466	0.337029	0	0	0.289039	-0.141626	-0.247041	0	0.190304	0	0	-0.277623	0.143034	0.213613	0.271303	-0.402142	0.0258812	1.30438	0.934967	0	0	0.49872	-0.469997	0.576787	0.888861	0.50925	0	0
0.21	2.4684	1.40343	-1.0726	0.864299	-0.00662975	0.925852	-0.295257	-0.00312178	-0.0719157	0.627811	0.329156	0	0	0.28981	-0.140466	-0.247143	0.0273339	0.205225	0	0	-0.273358	0.131655	0.219975	0.267984	-0.400434	0.0259844	1.3024	0.934455	0	0	0.500774	-0.475869	0.58636	0.89334	0.503468	0	0
0.22	2.49949	1.40678	-1.11504	0.864143	0.00939553	0.922545	-0.286744	-0.0209386	-0.0623796	0.676141	0.318411	0	0	0.289924	-0.137763	-0.254425	0.0733517	0.225627	0	0	-0.269392	0.118125	0.228044	0.264802	-0.399534	0.0266178	1.30145	0.931365	0	0	0.502734	-0.481973	0.595129	0.898549	0.498719	0	0
0.23	2.54739	1.40936	-1.1755	0.863701	0.0252582	0.919193	-0.275964	-0.0430828	-0.0546602	0.72939	0.302776	0	0	0.285482	-0.130491	-0.263555	0.10164	0.223573	0	0	-0.267561	0.102572	0.237294	0.262342	-0.399459	0.0268041	1.30156	0.928278	0	0	0.506136	-0.487349	0.604482	0.903298	0.494394	0	0
0.24	2.60321	1.41127	-1.24303	0.86288	0.040386	0.915915	-0.261696	-0.06603	-0.0458459	0.786251	0.279761	0	0	0.284721	-0.123148	-0.278348	0.124619	0.183371	0	0	-0.26803	0.0860777	0.24651	0.261185	-0.399236	0.0250597	1.3021	0.9261	0	0	0.512548	-0.491052	0.61414	0.907065	0.489466	0	0
0.25	2.66773	1.41439	-1.31738	0.86197	0.0543741	0.913086	-0.241649	-0.0875954	-0.0320368	0.846024	0.247633	0	0	0.298848	-0.122105	-0.307278	0.173496	0.128513	0	0	-0.269999	0.0669578	0.255519	0.260351	-0.397287	0.0192	1.30414	0.921765	0	0	0.523598	-0.492869	0.625942	0.908842	0.4821	0	0
0.26	2.75824	1.41893	-1.41716	0.861458	0.0674145	0.911202	-0.215912	-0.109252	-0.0115563	0.907955	0.207929	0	0	0.325142	-0.125912	-0.345058	0.25487	0.103778	0	0	-0.273174	0.0421825	0.266314	0.258396	-0.393468	0.00812916	1.30802	0.915432	0	0	0.540168	-0.491881	0.641321	0.905216	0.476137	0	0
0.27	2.87227	1.42227	-1.54068	0.861312	0.0800663	0.91023	-0.187216	-0.130255	0.014621	0.969989	0.16268	0	0	0.349855	-0.129114	-0.37713	0.342585	0.109876	0	0	-0.27732	0.0142224	0.27903	0.256282	-0.390251	-0.00449304	1.31232	0.914683	0	0	0.559423	-0.487468	0.657529	0.894688	0.474406	0	0
